<?xml version="1.0" encoding="UTF-8"?>
<svg width="70" height="50" viewBox="0 0 70 50" fill="none"
    xmlns="http://www.w3.org/2000/svg">
    <g transform="translate(0, 0)">
        <!-- Bar 1 -->
        <g>
            <rect x="0" y="20" width="12" height="30" fill="url(#gradient)" />
            <rect x="12" y="20" width="2" height="30" fill="#4A7A2A" transform="skewY(-35)" />
            <rect x="0" y="20" width="12" height="2" fill="#A8D06B" transform="skewX(-35)" />
        </g>
        <!-- Bar 2 -->
        <g>
            <rect x="16" y="5" width="12" height="45" fill="url(#gradient)" />
            <rect x="28" y="5" width="2" height="45" fill="#4A7A2A" transform="skewY(-35)" />
            <rect x="16" y="5" width="12" height="2" fill="#A8D06B" transform="skewX(-35)" />
        </g>
        <!-- Bar 3 -->
        <g>
            <rect x="32" y="15" width="12" height="35" fill="url(#gradient)" />
            <rect x="44" y="15" width="2" height="35" fill="#4A7A2A" transform="skewY(-35)" />
            <rect x="32" y="15" width="12" height="2" fill="#A8D06B" transform="skewX(-35)" />
        </g>
        <!-- Bar 4 -->
        <g>
            <rect x="48" y="0" width="12" height="50" fill="url(#gradient)" />
            <rect x="60" y="0" width="2" height="50" fill="#4A7A2A" transform="skewY(-35)" />
            <rect x="48" y="0" width="12" height="2" fill="#A8D06B" transform="skewX(-35)" />
        </g>
    </g>
    <defs>
        <linearGradient id="gradient" x1="0" y1="0" x2="1" y2="1">
            <stop offset="0%" stop-color="#88B04B"/>
            <stop offset="100%" stop-color="#6A9A2D"/>
        </linearGradient>
    </defs>
</svg> 