<?xml version="1.0" encoding="UTF-8"?>
<svg width="512" height="512" viewBox="0 0 512 512" fill="none"
    xmlns="http://www.w3.org/2000/svg">
    <rect width="512" height="512" fill="#0A0A0A"/>
    <path d="M256 96C167.635 96 96 167.635 96 256C96 344.365 167.635 416 256 416C344.365 416 416 344.365 416 256C416 167.635 344.365 96 256 96ZM256 384C185.307 384 128 326.693 128 256C128 185.307 185.307 128 256 128C326.693 128 384 185.307 384 256C384 326.693 326.693 384 256 384Z" fill="#00FF00"/>
    <path d="M272 176V240H336V272H272V336H240V272H176V240H240V176H272Z" fill="#00FF00"/>
</svg> 